<svg id="ebbc7907-93ff-4d1a-a109-16623c9ecd25" data-name="clouds 3" xmlns="http://www.w3.org/2000/svg" xmlns:xlink="http://www.w3.org/1999/xlink" viewBox="0 0 414.11 200.75"><defs><linearGradient id="a0ce5569-842d-4afa-8d83-ba1f49c1c643" x1="473.2" y1="363.25" x2="394.81" y2="502.26" gradientTransform="matrix(-1, 0, 0, 1, 981.12, 0)" gradientUnits="userSpaceOnUse"><stop offset="0" stop-color="#fff" stop-opacity="0"/><stop offset="0.24" stop-color="#fff" stop-opacity="0.22"/><stop offset="0.78" stop-color="#fff" stop-opacity="0.77"/><stop offset="1" stop-color="#fff"/></linearGradient><linearGradient id="ec8d231e-7875-4de6-9e98-dfbb46e8f0b8" x1="-568.03" y1="489.19" x2="-538.17" y2="535.31" gradientTransform="matrix(-1, 0, 0, 1, 237.56, 0)" gradientUnits="userSpaceOnUse"><stop offset="0" stop-color="#fff" stop-opacity="0"/><stop offset="0.1" stop-color="#fff" stop-opacity="0.06"/><stop offset="0.28" stop-color="#fff" stop-opacity="0.22"/><stop offset="0.53" stop-color="#fff" stop-opacity="0.47"/><stop offset="0.85" stop-color="#fff" stop-opacity="0.82"/><stop offset="1" stop-color="#fff"/></linearGradient></defs><title>clouds3</title><path d="M436.51,444.31a27,27,0,0,1,31.65-39.87c0-.49,0-1,0-1.47a73.44,73.44,0,0,1,141.57-27.42c1.75-.14,3.52-.23,5.31-.23a65.78,65.78,0,0,1,64.78,77.43,27.57,27.57,0,1,1-28.88,43.54,65.74,65.74,0,0,1-66,3.38,42.45,42.45,0,0,1-59.65-12.45,42.46,42.46,0,0,1-76.9-11.81,16.64,16.64,0,0,1-11.85-31.1Z" transform="translate(-426.07 -329.53)" fill="url(#a0ce5569-842d-4afa-8d83-ba1f49c1c643)"/><path d="M744,507.42a9.84,9.84,0,0,1,8.34-15.08,10,10,0,0,1,3.21.53c0-.18,0-.35,0-.53a26.8,26.8,0,0,1,51.66-10c.64-.05,1.28-.08,1.94-.08a24,24,0,0,1,24,24,23.71,23.71,0,0,1-.38,4.24,10.06,10.06,0,1,1-10.53,15.89,24,24,0,0,1-24.08,1.23,15.5,15.5,0,0,1-21.77-4.54,15.49,15.49,0,0,1-28.06-4.31A6.07,6.07,0,0,1,744,507.42Z" transform="translate(-426.07 -329.53)" fill="url(#ec8d231e-7875-4de6-9e98-dfbb46e8f0b8)"/></svg>