<svg id="e2e22fa9-92a8-4005-bf85-436ec8ca586a" data-name="clouds 1" xmlns="http://www.w3.org/2000/svg" xmlns:xlink="http://www.w3.org/1999/xlink" viewBox="0 0 327.95 178.02"><defs><linearGradient id="e13d27cc-4ea6-4976-93fd-d00f96341ad0" x1="216.88" y1="151.49" x2="138.49" y2="290.5" gradientUnits="userSpaceOnUse"><stop offset="0" stop-color="#fff" stop-opacity="0"/><stop offset="0.24" stop-color="#fff" stop-opacity="0.22"/><stop offset="0.78" stop-color="#fff" stop-opacity="0.77"/><stop offset="1" stop-color="#fff"/></linearGradient><linearGradient id="a4561d54-1744-42b4-81ac-9c26c9d2fbef" x1="199.22" y1="153.73" x2="245.38" y2="225.01" gradientTransform="matrix(-1, 0, 0, 1, 498.26, 0)" gradientUnits="userSpaceOnUse"><stop offset="0" stop-color="#fff" stop-opacity="0"/><stop offset="0.1" stop-color="#fff" stop-opacity="0.06"/><stop offset="0.28" stop-color="#fff" stop-opacity="0.22"/><stop offset="0.53" stop-color="#fff" stop-opacity="0.47"/><stop offset="0.85" stop-color="#fff" stop-opacity="0.82"/><stop offset="1" stop-color="#fff"/></linearGradient></defs><title>clouds1</title><path d="M288.28,232.55a27,27,0,0,0-31.64-39.87c0-.49,0-1,0-1.47a73.43,73.43,0,0,0-141.56-27.42c-1.75-.14-3.52-.23-5.31-.23A65.78,65.78,0,0,0,45,241a27.57,27.57,0,1,0,28.87,43.54,65.75,65.75,0,0,0,66,3.38,42.45,42.45,0,0,0,59.65-12.45,42.46,42.46,0,0,0,76.9-11.81,16.64,16.64,0,0,0,11.84-31.1Z" transform="translate(-24.55 -117.18)" fill="url(#e13d27cc-4ea6-4976-93fd-d00f96341ad0)"/><path d="M203.77,181.91a15.22,15.22,0,0,1,17.85-22.49c0-.27,0-.55,0-.83a41.42,41.42,0,0,1,79.84-15.46c1-.08,2-.13,3-.13A37.08,37.08,0,0,1,341,186.67a15.55,15.55,0,1,1-16.28,24.56,37.11,37.11,0,0,1-37.22,1.9,23.94,23.94,0,0,1-33.64-7,23.95,23.95,0,0,1-43.37-6.66,9.53,9.53,0,0,1-3.18.56,9.39,9.39,0,0,1-3.5-18.1Z" transform="translate(-24.55 -117.18)" fill="url(#a4561d54-1744-42b4-81ac-9c26c9d2fbef)"/></svg>