<svg id="afbe20e8-10a9-48de-9883-eef099b18425" data-name="clouds 4" xmlns="http://www.w3.org/2000/svg" xmlns:xlink="http://www.w3.org/1999/xlink" viewBox="0 0 338.79 223.34"><defs><linearGradient id="eee464fc-04a6-404c-85cc-656fe9492559" x1="658.07" y1="81.44" x2="707.35" y2="190.98" gradientUnits="userSpaceOnUse"><stop offset="0" stop-color="#fff" stop-opacity="0"/><stop offset="0.24" stop-color="#fff" stop-opacity="0.22"/><stop offset="0.78" stop-color="#fff" stop-opacity="0.77"/><stop offset="1" stop-color="#fff"/></linearGradient><linearGradient id="bd6ea1db-884c-40b0-a1b4-714f0180631d" x1="853.34" y1="178.5" x2="811.83" y2="252.11" xlink:href="#eee464fc-04a6-404c-85cc-656fe9492559"/></defs><title>clouds4</title><path d="M821.62,146A27,27,0,0,0,790,106.16c0-.49,0-1,0-1.47A73.43,73.43,0,0,0,648.45,77.27c-1.75-.14-3.52-.23-5.31-.23a65.78,65.78,0,0,0-64.78,77.43A27.57,27.57,0,1,0,607.23,198a65.75,65.75,0,0,0,66,3.38,42.45,42.45,0,0,0,59.65-12.45,42.46,42.46,0,0,0,76.9-11.81A16.64,16.64,0,0,0,821.62,146Z" transform="translate(-557.89 -31.25)" fill="url(#eee464fc-04a6-404c-85cc-656fe9492559)"/><path d="M891.15,221.42a14.29,14.29,0,0,0-16.75-21.11c0-.26,0-.52,0-.78a38.89,38.89,0,0,0-75-14.52c-.92-.07-1.86-.12-2.81-.12a34.83,34.83,0,0,0-34.3,41A14.6,14.6,0,1,0,777.63,249a34.89,34.89,0,0,0,35,1.79,22.49,22.49,0,0,0,31.58-6.6,22.48,22.48,0,0,0,40.72-6.25,9,9,0,0,0,3,.53,8.82,8.82,0,0,0,3.28-17Z" transform="translate(-557.89 -31.25)" fill="url(#bd6ea1db-884c-40b0-a1b4-714f0180631d)"/></svg>