<svg id="adfd364b-70d3-47b3-85c8-f0f842ae9252" data-name="cloud 2" xmlns="http://www.w3.org/2000/svg" xmlns:xlink="http://www.w3.org/1999/xlink" viewBox="0 0 110.77 71.68"><defs><linearGradient id="a515b9cf-e752-4ef6-a72b-9a0ebf32ddea" x1="255.9" y1="411.82" x2="224.23" y2="467.98" gradientUnits="userSpaceOnUse"><stop offset="0" stop-color="#fff" stop-opacity="0"/><stop offset="0.24" stop-color="#fff" stop-opacity="0.22"/><stop offset="0.78" stop-color="#fff" stop-opacity="0.77"/><stop offset="1" stop-color="#fff"/></linearGradient></defs><title>cloud2</title><path d="M284.75,444.57a10.91,10.91,0,0,0-9.24-16.71,11,11,0,0,0-3.55.6c0-.2,0-.4,0-.6a29.67,29.67,0,0,0-57.2-11.07c-.7-.06-1.42-.1-2.14-.1a26.59,26.59,0,0,0-26.59,26.6,26.91,26.91,0,0,0,.42,4.69,11.14,11.14,0,1,0,11.66,17.59,26.56,26.56,0,0,0,26.67,1.36,17.13,17.13,0,0,0,24.09-5A17.15,17.15,0,0,0,280,457.13a6.62,6.62,0,0,0,2.28.4,6.72,6.72,0,0,0,2.51-13Z" transform="translate(-178.2 -398.2)" fill="url(#a515b9cf-e752-4ef6-a72b-9a0ebf32ddea)"/></svg>