<svg id="fd95c45f-a16f-4a17-bec6-077e78f26025" data-name="Laag 2" xmlns="http://www.w3.org/2000/svg" viewBox="0 0 615.65 409.28"><title>plane</title><path d="M607.88,462.07c244,17.57,352.12,0,352.12,0V340.83H606Z" transform="translate(-344.35 -70.75)" fill="#fff"/><path d="M352.56,376.72s-1.13-32.11,63.83-33.24S606,340.84,606,340.84l1.89,121.23S473.42,444,358.22,383.89C358.22,383.89,351.87,381.24,352.56,376.72Z" transform="translate(-344.35 -70.75)" fill="#fff"/><path d="M606.59,401.46l.6,16.34s-156.68,4.44-208.43-14.71c0,0-29.05-11.54-38-17.87" transform="translate(-344.35 -70.75)" fill="#fff"/><path d="M588.16,280a329.64,329.64,0,0,1-22.46-25.59l-174.27.95L398.56,280Z" transform="translate(-344.35 -70.75)" fill="#262e35"/><polygon points="47.08 184.64 41.37 164.53 203.94 163.16 221.35 183.69 47.08 184.64" fill="#1e6a94"/><polygon points="41.37 164.53 34.25 140.33 183.71 139.72 203.94 163.16 41.37 164.53" fill="#262e35"/><polygon points="34.25 140.33 28.54 120.31 166.26 119.74 183.71 139.72 34.25 140.33" fill="#1e6a94"/><polygon points="28.54 120.31 21.57 96.46 146.21 96.26 166.26 119.74 28.54 120.31" fill="#262e35"/><polygon points="21.57 96.46 15.86 76.02 128.51 75.86 146.21 96.26 21.57 96.46" fill="#1e6a94"/><polygon points="15.86 76.02 128.51 75.86 107.33 51.18 8.76 52.05 15.86 76.02" fill="#262e35"/><polygon points="8.76 52.05 2.88 32.14 90.16 31.55 107.33 51.18 8.76 52.05" fill="#1e6a94"/><path d="M353.11,73.76C402.05,63,418.33,84.54,418.33,84.54l16.18,17.75-87.28.6S337.78,77.13,353.11,73.76Z" transform="translate(-344.35 -70.75)" fill="#262e35"/><path d="M606.59,379.12l-252.2,2.21s.22,12.07,139.06,20.13c0,0,62.56,3.68,113.14,0Z" transform="translate(-344.35 -70.75)" fill="#262e35"/><path d="M605.21,299.44" transform="translate(-344.35 -70.75)" fill="#fff"/><polygon points="66.81 252.52 74.15 272.74 325.06 270.09 324.63 252.52 66.81 252.52" fill="#1e6a94"/><path d="M669,323.27l.44,17.57h57.87A367.38,367.38,0,0,1,669,323.27Z" transform="translate(-344.35 -70.75)" fill="#1e6a94"/><path d="M959,426.59v35.48s-270.07,59.86-561.24-59" transform="translate(-344.35 -70.75)" fill="#9c9c86"/><path d="M960,403.09v23.5s-465,41.34-599.22-41.37" transform="translate(-344.35 -70.75)" fill="#1e6a94"/><path d="M606.59,379.12H960v24S405.75,416,354.39,381.33" transform="translate(-344.35 -70.75)" fill="#262e35"/><path d="M436.54,380.69s150.24-32.38,155.76-2.83S438,393,438,393l-28.32-3.46s-12.72-4.72,0-5.35A215,215,0,0,0,436.54,380.69Z" transform="translate(-344.35 -70.75)"/><path d="M752.27,477.15s153.74,6.47,207.73,0V426.59Z" transform="translate(-344.35 -70.75)" fill="#9c9c86"/><polygon points="376.01 365.68 614.44 366.18 615.65 332.35 376.01 365.68" fill="#1e6a94"/><polygon points="614.44 366.18 615.65 366.18 615.65 332.35 614.44 366.18" fill="#1e6a94"/><polygon points="66.75 252.52 72.04 272.74 74.15 272.74 66.75 252.52" fill="#1e6a94"/><path d="M398.56,280l5.36,19.42H616.5A168.68,168.68,0,0,1,588.16,280Z" transform="translate(-344.35 -70.75)" fill="#1e6a94"/><path d="M403.92,299.44l7.18,23.83H669c-19.3-7.34-37.17-15.16-52.48-23.83Z" transform="translate(-344.35 -70.75)" fill="#262e35"/><circle cx="105.79" cy="149.71" r="48.08" fill="#fff"/><circle cx="91.72" cy="130.02" r="4.02" fill="#1e6a94"/><circle cx="101.4" cy="130.03" r="4.02" fill="#1e6a94"/><circle cx="111.04" cy="130.03" r="4.02" fill="#1e6a94"/><circle cx="120.88" cy="130" r="4.02" fill="#1e6a94"/><rect x="91.92" y="135.74" width="28.96" height="4.59" fill="#1e6a94"/><polygon points="105.42 118.86 105.42 121.39 102.7 121.39 102.7 123.41 105.42 123.41 105.42 126.02 107.23 126.02 107.23 123.39 109.86 123.39 109.86 121.55 107.02 121.55 107.02 118.86 105.42 118.86" fill="#1e6a94"/><path d="M411.33,215.7v19s-.07.69,1,.71,6.05,0,6.05,0,.62.14.63-1v-7l6.74,7.66s.22.53,2.26.55,6.78,0,6.78,0,.57-.1.14-.66-9.9-10.42-9.9-10.42l8.25-7.94s.77-.82-.31-.85-4.91,0-4.91,0a2.41,2.41,0,0,0-2.16.84c-1,1.1-6.64,6.46-6.64,6.46l-.27,0v-6.55s.23-.73-1.57-.74-5,0-5,0S411.33,215.45,411.33,215.7Z" transform="translate(-344.35 -70.75)" fill="#262e35"/><path d="M436.65,215.69a.71.71,0,0,0-.84.78V234.6s-.24,1,1.12,1H454.4s1,.13,1-.66v-3.73s.21-.86-.79-.84-11.46,0-11.46,0V216.63s.23-.95-1-.94Z" transform="translate(-344.35 -70.75)" fill="#262e35"/><path d="M457.31,216.66V234.4s-.35,1.21.81,1.19,6,0,6,0a.7.7,0,0,0,.9-.76c0-1,0-13.47,0-13.47l4.58,13.43a1,1,0,0,0,1,.82h5.16s.66.38,1.09-.9,4.66-13.16,4.66-13.16v13.08s-.13,1,.62,1,6.28,0,6.28,0,1.16.22,1.14-1.27-.27-17.52-.27-17.52a.84.84,0,0,0-.94-1H477.78s-.69-.33-1.14,1.19S473,227.09,473,227.09l-3.07-10.71a1,1,0,0,0-1.1-1h-10.1A1.27,1.27,0,0,0,457.31,216.66Z" transform="translate(-344.35 -70.75)" fill="#262e35"/></svg>